<svg xmlns="http://www.w3.org/2000/svg" width="200" height="138.746" viewBox="0 0 200 138.746"><path d="M3.686,138.746a3.686,3.686,0,0,1-3.107-5.668L14.066,111.94a3.685,3.685,0,0,1,3.107-1.7H182.829a3.685,3.685,0,0,1,3.107,1.7l13.486,21.136a3.686,3.686,0,0,1-3.106,5.669Zm6.723-7.371H189.591l-8.784-13.766H19.192Zm11.912-29.283a9.594,9.594,0,0,1-9.582-9.582V9.582A9.594,9.594,0,0,1,22.321,0h155.59a9.594,9.594,0,0,1,9.582,9.582V92.51a9.594,9.594,0,0,1-9.582,9.582ZM20.11,9.582V92.51a2.211,2.211,0,0,0,2.211,2.211h155.59a2.211,2.211,0,0,0,2.211-2.211V9.582a2.211,2.211,0,0,0-2.211-2.211H22.321A2.211,2.211,0,0,0,20.11,9.582ZM137.1,86.98V16.954h25.8V86.98Zm7.371-7.371h11.056V24.325H144.476ZM103.934,86.98V28.747h25.8V86.98Zm7.371-7.371h11.056V36.119H111.305ZM70.764,86.98V42.753h25.8V86.98Zm7.371-7.371H89.191V50.124H78.135ZM37.593,86.98V56.021h25.8V86.98Zm7.371-7.371H56.021V63.393H44.965Z" transform="translate(0)"/></svg>