<svg xmlns="http://www.w3.org/2000/svg" width="200" height="185.661" viewBox="0 0 200 185.661"><path d="M53.585,185.661a7.556,7.556,0,0,1-7.547-7.548v-4.528a7.556,7.556,0,0,1,7.547-7.547H64.906v-9.812H7.547A7.555,7.555,0,0,1,0,148.68V34.717A7.556,7.556,0,0,1,7.547,27.17H51.321v7.547H7.547v93.208H192.453V34.717H147.925V27.17h44.528A7.556,7.556,0,0,1,200,34.717V148.68a7.555,7.555,0,0,1-7.547,7.547H135.095v9.812h11.321a7.556,7.556,0,0,1,7.547,7.547v4.528a7.556,7.556,0,0,1-7.547,7.548Zm0-7.548h92.831v-4.528H53.585Zm18.868-12.075h55.094v-9.812H72.453ZM7.547,148.68H192.453V135.472H7.547Zm60.378-43.774A11.333,11.333,0,0,1,56.6,93.585V49.811a11.333,11.333,0,0,1,11.321-11.32h9.811V22.264a22.264,22.264,0,0,1,44.529,0v2.642h-7.548V22.264a14.717,14.717,0,1,0-29.434,0V38.491h46.793A11.333,11.333,0,0,1,143.4,49.811V93.585a11.333,11.333,0,0,1-11.321,11.32ZM64.151,49.811V93.585a3.773,3.773,0,0,0,3.774,3.773h64.151a3.774,3.774,0,0,0,3.774-3.773V49.811a3.774,3.774,0,0,0-3.774-3.773H67.925A3.773,3.773,0,0,0,64.151,49.811ZM86.792,72.076A13.208,13.208,0,1,1,100,85.283,13.222,13.222,0,0,1,86.792,72.076Zm7.548,0a5.66,5.66,0,1,0,5.66-5.66A5.666,5.666,0,0,0,94.34,72.076Z"/></svg>