<svg xmlns="http://www.w3.org/2000/svg" width="200" height="155.446" viewBox="0 0 200 155.446"><path d="M119.874,155.446h-.01a3.36,3.36,0,0,1-2.589-1.214L98.463,135.42a3.367,3.367,0,0,1,4.762-4.762L116.5,143.931V99.774a3.367,3.367,0,0,1,6.734,0v44.2l13.312-13.312a3.367,3.367,0,0,1,4.762,4.762l-19.04,19.04a3.357,3.357,0,0,1-2.381.986ZM76.259,138.42V90.366L62.987,103.639a3.367,3.367,0,0,1-4.762-4.762l19.04-19.04a3.368,3.368,0,0,1,4.762,0l19.04,19.04a3.367,3.367,0,0,1-4.762,4.762L82.993,90.327V138.42a3.367,3.367,0,1,1-6.734,0Zm72.563-19.228h9.09a35.354,35.354,0,1,0-10.885-69,50.363,50.363,0,0,0-31.9-40.119A50.651,50.651,0,0,0,55.09,28.853,49.722,49.722,0,0,0,46.465,56.9c0,1.059.035,2.141.1,3.213a30.31,30.31,0,1,0-9.53,59.077H51.178v6.734H37.037a37.037,37.037,0,1,1,0-74.074c.966,0,1.944.038,2.907.113a56.055,56.055,0,0,1,5.773-20.384,57.044,57.044,0,0,1,5.5-8.833A57.39,57.39,0,0,1,96.97,0,57.552,57.552,0,0,1,144.5,25.226a56.152,56.152,0,0,1,7.761,16.9,42.089,42.089,0,1,1,5.655,83.8c-.557,0-1.123-.012-1.683-.033v.033h-7.407Z"/></svg>