<svg xmlns="http://www.w3.org/2000/svg" width="200" height="184.152" viewBox="0 0 200 184.152"><path d="M53.585,184.152a7.556,7.556,0,0,1-7.547-7.548v-4.528a7.555,7.555,0,0,1,7.547-7.547H64.906v-9.812H7.547A7.555,7.555,0,0,1,0,147.17V33.208a7.555,7.555,0,0,1,7.547-7.547H51.321v7.547H7.547v93.208H192.453V33.208H147.925V25.661h44.528A7.555,7.555,0,0,1,200,33.208V147.17a7.555,7.555,0,0,1-7.547,7.547H135.095v9.812h11.321a7.555,7.555,0,0,1,7.547,7.547V176.6a7.556,7.556,0,0,1-7.547,7.548Zm0-7.548h92.831v-4.528H53.585Zm18.868-12.075h55.094v-9.812H72.453ZM7.547,147.17H192.453V133.962H7.547Zm60.378-42.265A11.333,11.333,0,0,1,56.6,93.585V49.811a11.333,11.333,0,0,1,11.321-11.32h9.811V22.264a22.264,22.264,0,0,1,44.529,0V38.491h9.811A11.333,11.333,0,0,1,143.4,49.811V93.585a11.333,11.333,0,0,1-11.321,11.32ZM64.151,49.811V93.585a3.773,3.773,0,0,0,3.774,3.773h64.151a3.774,3.774,0,0,0,3.774-3.773V49.811a3.774,3.774,0,0,0-3.774-3.773H67.925A3.773,3.773,0,0,0,64.151,49.811ZM94.271,8.7a14.705,14.705,0,0,0-8.988,13.56V38.491h29.434V22.264A14.725,14.725,0,0,0,94.271,8.7Zm1.955,76.58V74.517a7.924,7.924,0,1,1,7.547,0V85.283Z"/></svg>