<svg xmlns="http://www.w3.org/2000/svg" width="200" height="152.716" viewBox="0 0 200 152.716"><path d="M79.461,152.716a6.734,6.734,0,0,1-6.734-6.734v-6.735a26.936,26.936,0,1,1,53.872,0v6.734a6.734,6.734,0,0,1-6.734,6.735ZM91.8,120.633a20.186,20.186,0,0,0-12.339,18.615v6.735h40.4v-6.735A20.214,20.214,0,0,0,91.8,120.633Zm-31.195,5.293H37.037a37.037,37.037,0,1,1,0-74.074c.966,0,1.944.038,2.907.113a56.055,56.055,0,0,1,5.773-20.384,57.044,57.044,0,0,1,5.5-8.833A57.434,57.434,0,0,1,144.5,25.226a56.152,56.152,0,0,1,7.761,16.9,42.089,42.089,0,1,1,5.655,83.8c-.557,0-1.123-.011-1.683-.033v.033H138.721v-6.734h19.192a35.354,35.354,0,1,0-10.885-69,50.363,50.363,0,0,0-31.9-40.119A50.651,50.651,0,0,0,55.09,28.853,49.722,49.722,0,0,0,46.465,56.9c0,1.059.035,2.141.1,3.213a30.31,30.31,0,1,0-9.53,59.077H60.606v6.734h0ZM78.788,86.049a20.875,20.875,0,1,1,20.875,20.876A20.9,20.9,0,0,1,78.788,86.049Zm6.734,0A14.142,14.142,0,1,0,99.663,71.908,14.142,14.142,0,0,0,85.522,86.049Z"/></svg>