<svg xmlns="http://www.w3.org/2000/svg" width="200" height="146.713" viewBox="0 0 200 146.713"><path d="M13.841,146.713A13.841,13.841,0,0,1,0,132.872V15.225A13.841,13.841,0,0,1,13.841,1.384h60.9A13.841,13.841,0,0,1,88.581,15.225V68.547h22.838V13.841A13.841,13.841,0,0,1,125.259,0h60.9A13.841,13.841,0,0,1,200,13.841V130.1a13.841,13.841,0,0,1-13.841,13.841h-60.9A13.841,13.841,0,0,1,111.419,130.1V75.467H88.581v57.4a13.841,13.841,0,0,1-13.841,13.841ZM6.92,132.872a6.928,6.928,0,0,0,6.92,6.92h60.9a6.928,6.928,0,0,0,6.92-6.92v-8.3H6.92ZM118.339,130.1a6.928,6.928,0,0,0,6.92,6.92h60.9a6.928,6.928,0,0,0,6.92-6.92v-7.287H118.339ZM81.661,117.647V75.467h-40.2L57.191,91.2A3.46,3.46,0,0,1,52.3,96.091L30.66,74.453a3.461,3.461,0,0,1,0-4.894L52.3,47.923a3.46,3.46,0,0,1,4.893,4.894L41.46,68.547h40.2V30.14H6.92v87.506ZM193.08,115.9V28.391H118.339V68.547h38.168l-15.73-15.73a3.46,3.46,0,1,1,4.894-4.894L167.307,69.56a3.46,3.46,0,0,1,0,4.893L145.67,96.091a3.46,3.46,0,1,1-4.894-4.893l15.73-15.73H118.339V115.9ZM81.661,23.22v-8a6.928,6.928,0,0,0-6.92-6.92h-60.9a6.929,6.929,0,0,0-6.92,6.92v8ZM193.08,21.47v-7.63a6.928,6.928,0,0,0-6.92-6.92h-60.9a6.928,6.928,0,0,0-6.92,6.92v7.63Z"/></svg>