<svg xmlns="http://www.w3.org/2000/svg" width="200" height="156.982" viewBox="0 0 200 156.982"><path d="M53.585,151.982a7.547,7.547,0,0,1-7.547-7.548v-4.528a7.547,7.547,0,0,1,7.547-7.547H64.906v-9.811H7.547A7.555,7.555,0,0,1,0,115V2.547A7.555,7.555,0,0,1,7.547-5H192.453A7.555,7.555,0,0,1,200,2.547V115a7.555,7.555,0,0,1-7.547,7.547H135.095v9.812h11.321a7.547,7.547,0,0,1,7.547,7.547v4.528a7.548,7.548,0,0,1-7.547,7.548Zm0-7.548h92.831v-4.528H53.585Zm73.962-12.075V93.868H72.453v38.491ZM192.453,115V2.547H7.547V115H64.906V93.868a7.555,7.555,0,0,1,7.547-7.547h55.094a7.555,7.555,0,0,1,7.547,7.547V115Z" transform="translate(0 5)"/></svg>