<svg xmlns="http://www.w3.org/2000/svg" width="180.012" height="200" viewBox="0 0 180.012 200"><path d="M8.025,200A8.026,8.026,0,0,1,0,191.975V119.991a8.026,8.026,0,0,1,8.025-8.025H85.993V91.087h8.025v20.878h77.967a8.026,8.026,0,0,1,8.026,8.025v71.984A8.026,8.026,0,0,1,171.986,200Zm0-8.025h163.96V161.829H8.025ZM171.986,153.8V119.991H8.025V153.8Zm-27.151,23.281a7.007,7.007,0,1,1,7.007,7.007A7.007,7.007,0,0,1,144.834,177.085ZM25.1,180.66v-8.025H52.256v8.025Zm119.73-44a7.007,7.007,0,1,1,7.007,7.007A7.008,7.008,0,0,1,144.834,136.655Zm-119.73,3.7V132.33H52.256v8.025ZM120.66,91.087h-72.7a28.027,28.027,0,0,1-1.184-56.029C50.047,15.189,67.008,0,87.378,0c17.237,0,32.522,11.2,38.493,27.154.16,0,.321,0,.482,0a31.968,31.968,0,1,1,0,63.936ZM28.7,63.061A19.269,19.269,0,0,0,47.964,82.329h78.388a23.21,23.21,0,1,0-6.943-45.364C117.03,20.994,103.6,8.758,87.378,8.758c-17.9,0-32.407,14.9-32.407,33.282q0,1.579.141,3.121A19.279,19.279,0,0,0,28.7,63.061Z"/></svg>