<svg xmlns="http://www.w3.org/2000/svg" width="200" height="177.359" viewBox="0 0 200 177.359"><path d="M53.585,177.359a7.556,7.556,0,0,1-7.547-7.548v-4.528a7.555,7.555,0,0,1,7.547-7.547H64.906v-9.812H7.547A7.555,7.555,0,0,1,0,140.378V26.415a7.555,7.555,0,0,1,7.547-7.547H41.509v7.547H7.547v93.208H192.453V26.415H157.736V18.868h34.717A7.555,7.555,0,0,1,200,26.415V140.378a7.555,7.555,0,0,1-7.547,7.547H135.095v9.812h11.321a7.555,7.555,0,0,1,7.547,7.547v4.528a7.556,7.556,0,0,1-7.547,7.548Zm0-7.548h92.831v-4.528H53.585Zm18.868-12.075h55.094v-9.812H72.453ZM7.547,140.378H192.453V127.17H7.547ZM73.208,98.113a11.333,11.333,0,0,1-11.321-11.32V11.321A11.334,11.334,0,0,1,73.208,0h54.34a11.333,11.333,0,0,1,11.32,11.321V86.793a11.333,11.333,0,0,1-11.32,11.32Zm-3.774-11.32a3.773,3.773,0,0,0,3.774,3.773h54.34a3.773,3.773,0,0,0,3.773-3.773V69.812H69.434Zm0-24.528h61.887V38.113H69.434Zm0-50.943V30.566h61.887V11.321a3.773,3.773,0,0,0-3.773-3.774H73.208A3.773,3.773,0,0,0,69.434,11.321Zm44.529,69.056a4.151,4.151,0,1,1,4.151,4.151A4.151,4.151,0,0,1,113.963,80.377Zm0-30.188a4.151,4.151,0,1,1,4.151,4.151A4.151,4.151,0,0,1,113.963,50.189Zm0-30.944a4.151,4.151,0,1,1,4.151,4.151A4.151,4.151,0,0,1,113.963,19.245Z"/></svg>